<?xml version='1.0' standalone='no'?>
<svg width='59.4mm' height='38.76mm' version='1.1' xmlns='http://www.w3.org/2000/svg' contentScriptType='text/javascript'>
<script  id="clientEventHandlersJS">
function OnClickLingTreeNode(node){}
</script>
<text x="27.41mm" y="1mm" font-family="Times New Roman" font-size="12" fill="#000000" font-weight="bold"></text>
<text x="5.96mm" y="6.61mm" font-family="Times New Roman" font-size="12" fill="#000000" font-weight="bold">σ</text>
<text x="5.7mm" y="14.83mm" font-family="Times New Roman" font-size="12" fill="#000000" font-weight="bold">R</text>
<text x="1.87mm" y="23.05mm" font-family="Times New Roman" font-size="12" fill="#000000" font-weight="bold">N</text>
<text x="1.79mm" y="34.63mm" font-family="Charis SIL" font-size="12" fill="#0000FF" font-weight="bold">æ</text>
<line x1="3.39mm" y1="29.2mm" x2="3.39mm" y2="24.76mm" stroke="#000000" stroke-width="0.1mm"/>
<line x1="3.39mm" y1="18.74mm" x2="7.22mm" y2="16.54mm" stroke="#000000" stroke-width="0.1mm"/>
<text x="9.54mm" y="23.05mm" font-family="Times New Roman" font-size="12" fill="#000000" font-weight="bold">C</text>
<text x="10.04mm" y="34.63mm" font-family="Charis SIL" font-size="12" fill="#0000FF" font-weight="bold">t</text>
<line x1="11.06mm" y1="29.2mm" x2="11.06mm" y2="24.76mm" stroke="#000000" stroke-width="0.1mm"/>
<line x1="11.06mm" y1="18.74mm" x2="7.22mm" y2="16.54mm" stroke="#000000" stroke-width="0.1mm"/>
<line x1="7.22mm" y1="10.52mm" x2="7.22mm" y2="8.32mm" stroke="#000000" stroke-width="0.1mm"/>
<text x="23.29mm" y="6.61mm" font-family="Times New Roman" font-size="12" fill="#000000" font-weight="bold">σ</text>
<text x="17.14mm" y="14.83mm" font-family="Times New Roman" font-size="12" fill="#000000" font-weight="bold">O</text>
<text x="17.78mm" y="34.63mm" font-family="Charis SIL" font-size="12" fill="#0000FF" font-weight="bold">l</text>
<line x1="18.74mm" y1="29.2mm" x2="18.74mm" y2="16.54mm" stroke="#000000" stroke-width="0.1mm"/>
<line x1="18.74mm" y1="10.52mm" x2="24.55mm" y2="8.32mm" stroke="#000000" stroke-width="0.1mm"/>
<text x="28.84mm" y="14.83mm" font-family="Times New Roman" font-size="12" fill="#000000" font-weight="bold">R</text>
<text x="25.01mm" y="23.05mm" font-family="Times New Roman" font-size="12" fill="#000000" font-weight="bold">N</text>
<text x="24.93mm" y="34.63mm" font-family="Charis SIL" font-size="12" fill="#0000FF" font-weight="bold">æ</text>
<line x1="26.53mm" y1="29.2mm" x2="26.53mm" y2="24.76mm" stroke="#000000" stroke-width="0.1mm"/>
<line x1="26.53mm" y1="18.74mm" x2="30.36mm" y2="16.54mm" stroke="#000000" stroke-width="0.1mm"/>
<text x="32.68mm" y="23.05mm" font-family="Times New Roman" font-size="12" fill="#000000" font-weight="bold">C</text>
<text x="32.82mm" y="34.63mm" font-family="Charis SIL" font-size="12" fill="#0000FF" font-weight="bold">n</text>
<line x1="34.2mm" y1="29.2mm" x2="34.2mm" y2="24.76mm" stroke="#000000" stroke-width="0.1mm"/>
<line x1="34.2mm" y1="18.74mm" x2="30.36mm" y2="16.54mm" stroke="#000000" stroke-width="0.1mm"/>
<line x1="30.36mm" y1="10.52mm" x2="24.55mm" y2="8.32mm" stroke="#000000" stroke-width="0.1mm"/>
<text x="46.35mm" y="6.61mm" font-family="Times New Roman" font-size="12" fill="#000000" font-weight="bold">σ</text>
<text x="40.28mm" y="14.83mm" font-family="Times New Roman" font-size="12" fill="#000000" font-weight="bold">O</text>
<text x="40.86mm" y="34.63mm" font-family="Charis SIL" font-size="12" fill="#0000FF" font-weight="bold">t</text>
<line x1="41.88mm" y1="29.2mm" x2="41.88mm" y2="16.54mm" stroke="#000000" stroke-width="0.1mm"/>
<line x1="41.88mm" y1="10.52mm" x2="47.61mm" y2="8.32mm" stroke="#000000" stroke-width="0.1mm"/>
<text x="51.82mm" y="14.83mm" font-family="Times New Roman" font-size="12" fill="#000000" font-weight="bold">R</text>
<text x="48.04mm" y="23.05mm" font-family="Times New Roman" font-size="12" fill="#000000" font-weight="bold">N</text>
<text x="48.63mm" y="34.63mm" font-family="Charis SIL" font-size="12" fill="#0000FF" font-weight="bold">ɪ</text>
<line x1="49.56mm" y1="29.2mm" x2="49.56mm" y2="24.76mm" stroke="#000000" stroke-width="0.1mm"/>
<line x1="49.56mm" y1="18.74mm" x2="53.34mm" y2="16.54mm" stroke="#000000" stroke-width="0.1mm"/>
<text x="55.6mm" y="23.05mm" font-family="Times New Roman" font-size="12" fill="#000000" font-weight="bold">C</text>
<text x="55.78mm" y="34.63mm" font-family="Charis SIL" font-size="12" fill="#0000FF" font-weight="bold">k</text>
<line x1="57.12mm" y1="29.2mm" x2="57.12mm" y2="24.76mm" stroke="#000000" stroke-width="0.1mm"/>
<line x1="57.12mm" y1="18.74mm" x2="53.34mm" y2="16.54mm" stroke="#000000" stroke-width="0.1mm"/>
<line x1="53.34mm" y1="10.52mm" x2="47.61mm" y2="8.32mm" stroke="#000000" stroke-width="0.1mm"/>
</svg>