<?xml version='1.0' standalone='no'?>
<svg width='51.84mm' height='38.76mm' version='1.1' xmlns='http://www.w3.org/2000/svg' contentScriptType='text/javascript'>
<script  id="clientEventHandlersJS">
function OnClickLingTreeNode(node){}
</script>
<text x="21.72mm" y="1mm" font-family="Times New Roman" font-size="12" fill="#000000" font-weight="bold"></text>
<text x="2.13mm" y="6.61mm" font-family="Times New Roman" font-size="12" fill="#000000" font-weight="bold">σ</text>
<text x="1.87mm" y="14.83mm" font-family="Times New Roman" font-size="12" fill="#000000" font-weight="bold">R</text>
<text x="1.87mm" y="23.05mm" font-family="Times New Roman" font-size="12" fill="#000000" font-weight="bold">N</text>
<text x="1.79mm" y="34.63mm" font-family="Charis SIL" font-size="12" fill="#0000FF" font-weight="bold">æ</text>
<line x1="3.39mm" y1="29.2mm" x2="3.39mm" y2="24.76mm" stroke="#000000" stroke-width="0.1mm"/>
<line x1="3.39mm" y1="18.74mm" x2="3.39mm" y2="16.54mm" stroke="#000000" stroke-width="0.1mm"/>
<line x1="3.39mm" y1="10.52mm" x2="3.39mm" y2="8.32mm" stroke="#000000" stroke-width="0.1mm"/>
<text x="15.73mm" y="6.61mm" font-family="Times New Roman" font-size="12" fill="#000000" font-weight="bold">σ</text>
<text x="9.58mm" y="14.83mm" font-family="Times New Roman" font-size="12" fill="#000000" font-weight="bold">O</text>
<text x="9.68mm" y="34.63mm" font-family="Charis SIL" font-size="12" fill="#0000FF" font-weight="bold">tl</text>
<line x1="11.18mm" y1="29.2mm" x2="11.18mm" y2="16.54mm" stroke="#000000" stroke-width="0.1mm"/>
<line x1="11.18mm" y1="10.52mm" x2="16.99mm" y2="8.32mm" stroke="#000000" stroke-width="0.1mm"/>
<text x="21.28mm" y="14.83mm" font-family="Times New Roman" font-size="12" fill="#000000" font-weight="bold">R</text>
<text x="17.45mm" y="23.05mm" font-family="Times New Roman" font-size="12" fill="#000000" font-weight="bold">N</text>
<text x="17.37mm" y="34.63mm" font-family="Charis SIL" font-size="12" fill="#0000FF" font-weight="bold">æ</text>
<line x1="18.97mm" y1="29.2mm" x2="18.97mm" y2="24.76mm" stroke="#000000" stroke-width="0.1mm"/>
<line x1="18.97mm" y1="18.74mm" x2="22.8mm" y2="16.54mm" stroke="#000000" stroke-width="0.1mm"/>
<text x="25.12mm" y="23.05mm" font-family="Times New Roman" font-size="12" fill="#000000" font-weight="bold">C</text>
<text x="25.26mm" y="34.63mm" font-family="Charis SIL" font-size="12" fill="#0000FF" font-weight="bold">n</text>
<line x1="26.64mm" y1="29.2mm" x2="26.64mm" y2="24.76mm" stroke="#000000" stroke-width="0.1mm"/>
<line x1="26.64mm" y1="18.74mm" x2="22.8mm" y2="16.54mm" stroke="#000000" stroke-width="0.1mm"/>
<line x1="22.8mm" y1="10.52mm" x2="16.99mm" y2="8.32mm" stroke="#000000" stroke-width="0.1mm"/>
<text x="38.79mm" y="6.61mm" font-family="Times New Roman" font-size="12" fill="#000000" font-weight="bold">σ</text>
<text x="32.72mm" y="14.83mm" font-family="Times New Roman" font-size="12" fill="#000000" font-weight="bold">O</text>
<text x="33.3mm" y="34.63mm" font-family="Charis SIL" font-size="12" fill="#0000FF" font-weight="bold">t</text>
<line x1="34.32mm" y1="29.2mm" x2="34.32mm" y2="16.54mm" stroke="#000000" stroke-width="0.1mm"/>
<line x1="34.32mm" y1="10.52mm" x2="40.05mm" y2="8.32mm" stroke="#000000" stroke-width="0.1mm"/>
<text x="44.26mm" y="14.83mm" font-family="Times New Roman" font-size="12" fill="#000000" font-weight="bold">R</text>
<text x="40.48mm" y="23.05mm" font-family="Times New Roman" font-size="12" fill="#000000" font-weight="bold">N</text>
<text x="41.07mm" y="34.63mm" font-family="Charis SIL" font-size="12" fill="#0000FF" font-weight="bold">ɪ</text>
<line x1="42mm" y1="29.2mm" x2="42mm" y2="24.76mm" stroke="#000000" stroke-width="0.1mm"/>
<line x1="42mm" y1="18.74mm" x2="45.78mm" y2="16.54mm" stroke="#000000" stroke-width="0.1mm"/>
<text x="48.04mm" y="23.05mm" font-family="Times New Roman" font-size="12" fill="#000000" font-weight="bold">C</text>
<text x="48.22mm" y="34.63mm" font-family="Charis SIL" font-size="12" fill="#0000FF" font-weight="bold">k</text>
<line x1="49.56mm" y1="29.2mm" x2="49.56mm" y2="24.76mm" stroke="#000000" stroke-width="0.1mm"/>
<line x1="49.56mm" y1="18.74mm" x2="45.78mm" y2="16.54mm" stroke="#000000" stroke-width="0.1mm"/>
<line x1="45.78mm" y1="10.52mm" x2="40.05mm" y2="8.32mm" stroke="#000000" stroke-width="0.1mm"/>
</svg>