<?xml version='1.0' standalone='no'?>
<svg width='51.86mm' height='38.76mm' version='1.1' xmlns='http://www.w3.org/2000/svg' contentScriptType='text/javascript'>
<script  id="clientEventHandlersJS">
function OnClickLingTreeNode(node){}
</script>
<text x="27.56mm" y="1mm" font-family="Times New Roman" font-size="12" fill="#000000" font-weight="bold"></text>
<text x="13.8mm" y="6.61mm" font-family="Times New Roman" font-size="12" fill="#000000" font-weight="bold">σ</text>
<text x="5.7mm" y="14.83mm" font-family="Times New Roman" font-size="12" fill="#000000" font-weight="bold">O</text>
<text x="2.42mm" y="34.63mm" font-family="Charis SIL" font-size="12" fill="#0000FF" font-weight="bold">f</text>
<line x1="3.4mm" y1="29.2mm" x2="7.3mm" y2="16.54mm" stroke="#000000" stroke-width="0.1mm"/>
<text x="10.1mm" y="34.63mm" font-family="Charis SIL" font-size="12" fill="#0000FF" font-weight="bold">ɹ</text>
<line x1="11.2mm" y1="29.2mm" x2="7.3mm" y2="16.54mm" stroke="#000000" stroke-width="0.1mm"/>
<line x1="7.3mm" y1="10.52mm" x2="15.06mm" y2="8.32mm" stroke="#000000" stroke-width="0.1mm"/>
<text x="21.3mm" y="14.83mm" font-family="Times New Roman" font-size="12" fill="#000000" font-weight="bold">R</text>
<text x="17.47mm" y="23.05mm" font-family="Times New Roman" font-size="12" fill="#000000" font-weight="bold">N</text>
<text x="17.39mm" y="34.63mm" font-family="Charis SIL" font-size="12" fill="#0000FF" font-weight="bold">æ</text>
<line x1="18.99mm" y1="29.2mm" x2="18.99mm" y2="24.76mm" stroke="#000000" stroke-width="0.1mm"/>
<line x1="18.99mm" y1="18.74mm" x2="22.82mm" y2="16.54mm" stroke="#000000" stroke-width="0.1mm"/>
<text x="25.14mm" y="23.05mm" font-family="Times New Roman" font-size="12" fill="#000000" font-weight="bold">C</text>
<text x="25.28mm" y="34.63mm" font-family="Charis SIL" font-size="12" fill="#0000FF" font-weight="bold">n</text>
<line x1="26.66mm" y1="29.2mm" x2="26.66mm" y2="24.76mm" stroke="#000000" stroke-width="0.1mm"/>
<line x1="26.66mm" y1="18.74mm" x2="22.82mm" y2="16.54mm" stroke="#000000" stroke-width="0.1mm"/>
<line x1="22.82mm" y1="10.52mm" x2="15.06mm" y2="8.32mm" stroke="#000000" stroke-width="0.1mm"/>
<text x="38.81mm" y="6.61mm" font-family="Times New Roman" font-size="12" fill="#000000" font-weight="bold">σ</text>
<text x="32.74mm" y="14.83mm" font-family="Times New Roman" font-size="12" fill="#000000" font-weight="bold">O</text>
<text x="33.32mm" y="34.63mm" font-family="Charis SIL" font-size="12" fill="#0000FF" font-weight="bold">t</text>
<line x1="34.34mm" y1="29.2mm" x2="34.34mm" y2="16.54mm" stroke="#000000" stroke-width="0.1mm"/>
<line x1="34.34mm" y1="10.52mm" x2="40.07mm" y2="8.32mm" stroke="#000000" stroke-width="0.1mm"/>
<text x="44.28mm" y="14.83mm" font-family="Times New Roman" font-size="12" fill="#000000" font-weight="bold">R</text>
<text x="40.5mm" y="23.05mm" font-family="Times New Roman" font-size="12" fill="#000000" font-weight="bold">N</text>
<text x="41.09mm" y="34.63mm" font-family="Charis SIL" font-size="12" fill="#0000FF" font-weight="bold">ɪ</text>
<line x1="42.02mm" y1="29.2mm" x2="42.02mm" y2="24.76mm" stroke="#000000" stroke-width="0.1mm"/>
<line x1="42.02mm" y1="18.74mm" x2="45.8mm" y2="16.54mm" stroke="#000000" stroke-width="0.1mm"/>
<text x="48.06mm" y="23.05mm" font-family="Times New Roman" font-size="12" fill="#000000" font-weight="bold">C</text>
<text x="48.24mm" y="34.63mm" font-family="Charis SIL" font-size="12" fill="#0000FF" font-weight="bold">k</text>
<line x1="49.58mm" y1="29.2mm" x2="49.58mm" y2="24.76mm" stroke="#000000" stroke-width="0.1mm"/>
<line x1="49.58mm" y1="18.74mm" x2="45.8mm" y2="16.54mm" stroke="#000000" stroke-width="0.1mm"/>
<line x1="45.8mm" y1="10.52mm" x2="40.07mm" y2="8.32mm" stroke="#000000" stroke-width="0.1mm"/>
</svg>